<svg id="Capa_1" enable-background="new 0 0 512 512" height="512" viewBox="0 0 512 512" width="512" xmlns="http://www.w3.org/2000/svg"><g><g><path d="m456.834 0h-401.668c-30.418 0-55.166 24.748-55.166 55.167v401.666c0 30.419 24.748 55.167 55.166 55.167h401.668c30.418 0 55.166-24.748 55.166-55.167v-401.666c0-30.419-24.748-55.167-55.166-55.167z" fill="#79d6de"/><path d="m512 456.833v-401.666c0-30.419-24.748-55.167-55.166-55.167h-200.834v512h200.834c30.418 0 55.166-24.748 55.166-55.167z" fill="#60a9b0"/></g><g><g><path d="m219.85 96.358c-8.283 0-15 6.716-15 15v81.4h-18.2v-81.4c0-8.284-6.715-15-15-15-8.283 0-15 6.716-15 15v81.4h-18.199v-81.4c0-8.284-6.717-15-15-15-8.285 0-15 6.716-15 15v96.4c0 19.439 9.051 37.745 24.1 49.633v119.067c0 21.56 17.541 39.101 39.1 39.101 21.561 0 39.1-17.54 39.1-39.101v-119.066c15.049-11.888 24.1-30.193 24.1-49.633v-96.4c-.001-8.285-6.716-15.001-15.001-15.001z" fill="#faf3f4"/><path d="m316.25 96.358c-8.283 0-15 6.716-15 15v265.101c0 21.56 17.541 39.101 39.1 39.101 21.561 0 39.102-17.54 39.102-39.101v-111.95h9.1c8.283 0 15-6.716 15-15v-65.85c-.001-48.138-39.163-87.301-87.302-87.301z" fill="#daebeb"/></g></g></g></svg>